 
http://www.imdb.com/title/tt1551630/


Plot: A petty robbery spirals into a tense hostage situation after three gunmen hold up a diner that's a front for the mob. 



Director:
 David A. Armstrong 

Writer:
 Jay Anthony White 

Stars:
 Ronald Guttman, Ray Liotta, Max Beesley 

Genres:
  Crime |  Thriller 


Thanks: BluRay 720p CHD


Format                                   : AVI
Format/Info                              : Audio Video Interleave
File size                                : 690 MiB
Duration                                 : 1h 28mn
Overall bit rate                         : 1 092 Kbps
Writing application                      : Lavf54.59.103

Video
ID                                       : 0
Format                                   : MPEG-4 Visual
Format profile                           : Simple@L3
Format settings, BVOP                    : No
Format settings, QPel                    : No
Format settings, GMC                     : No warppoints
Format settings, Matrix                  : Default (H.263)
Codec ID                                 : XVID
Codec ID/Hint                            : XviD
Duration                                 : 1h 28mn
Bit rate                                 : 953 Kbps
Width                                    : 640 pixels
Height                                   : 264 pixels
Display aspect ratio                     : 2.40:1
Frame rate                               : 23.976 fps
Color space                              : YUV
Chroma subsampling                       : 4:2:0
Bit depth                                : 8 bits
Scan type                                : Progressive
Compression mode                         : Lossy
Bits/(Pixel*Frame)                       : 0.235
Stream size                              : 603 MiB (87%)
Title                                    : Pawn.2013
Writing library                          : XviD 64

Audio
ID                                       : 1
Format                                   : AC-3
Format/Info                              : Audio Coding 3
Mode extension                           : CM (complete main)
Format settings, Endianness              : Big
Codec ID                                 : 2000
Duration                                 : 1h 28mn
Bit rate mode                            : Constant
Bit rate                                 : 128 Kbps
Channel(s)                               : 2 channels
Channel positions                        : Front: L R
Sampling rate                            : 48.0 KHz
Bit depth                                : 16 bits
Compression mode                         : Lossy
Stream size                              : 81.0 MiB (12%)
Alignment                                : Aligned on interleaves
Interleave, duration                     : 32 ms (0.77 video frame)
Title                                    : DD5.1 640K


 
http://www.shotpix.com/images/43152292816625124305.png 
http://www.shotpix.com/images/30515243883438975273.png 
http://www.shotpix.com/images/84234498488212373613.png 
http://www.shotpix.com/images/61451123772072432535.png